<svg xmlns="http://www.w3.org/2000/svg" width="22" height="22" viewBox="0 0 22 22" fill="none">
  <path fill-rule="evenodd" clip-rule="evenodd" d="M11.5138 20.0013L18.3411 16.1978C19.3073 15.6595 19.9062 14.6402 19.9062 13.5342V6.64844L13.0782 10.4546C12.1124 10.9929 11.5138 12.012 11.5138 13.1178V20.0013Z" fill="#87AFFF"/>
  <mask id="mask0_23563_35706" style="mask-type:alpha" maskUnits="userSpaceOnUse" x="1" y="3" width="12" height="19">
    <path d="M1.69531 3.89062L12.3674 9.9865V21.2639L3.26083 16.1923C2.29442 15.654 1.69531 14.6346 1.69531 13.5285V3.89062Z" fill="#87AFFF"/>
  </mask>
  <g mask="url(#mask0_23563_35706)">
    <path fill-rule="evenodd" clip-rule="evenodd" d="M10.0879 13.1162C10.0874 12.0103 9.48783 10.991 8.52148 10.4531L1.69727 6.65625L1.69141 16.4014C1.69072 17.4852 2.26563 18.4879 3.20117 19.0352L10.0928 23.0664L10.0879 13.1162ZM4.00391 17.6631C3.556 17.4011 3.28092 16.9212 3.28125 16.4023L3.2829 13.4237L8.49939 16.4058L8.50098 20.2939L4.00391 17.6631ZM8.49864 14.5747L8.49805 13.1172C8.49805 12.5983 8.22266 12.1187 7.77441 11.8574L3.28516 9.29102L3.28418 11.5908L8.49864 14.5747Z" fill="#002C5F"/>
  </g>
  <path fill-rule="evenodd" clip-rule="evenodd" d="M10.0879 13.1162C10.0874 12.0103 9.48783 10.991 8.52148 10.4531L1.69727 6.65625V3.89062L12.3691 9.98633V13.1172C12.3691 14.2231 11.7695 15.2424 10.8027 15.7812L1.69727 20.8516V18.0859L10.0879 13.1162Z" fill="#00AAD2"/>
</svg>
