<svg xmlns="http://www.w3.org/2000/svg" width="18" height="17" viewBox="0 0 18 17" fill="none">
  <mask id="path-1-inside-1_23563_35730" fill="white">
    <path fill-rule="evenodd" clip-rule="evenodd" d="M15.8291 7.17096C15.8313 7.09956 15.8325 7.02789 15.8325 6.95597C15.8325 3.1143 12.5586 0 8.52 0C4.48142 0 1.20751 3.1143 1.20751 6.95597C1.20751 7.04376 1.20922 7.13117 1.21261 7.21817C1.21117 7.24007 1.21045 7.26216 1.21045 7.28442V11.5014C1.21045 12.8334 0.74599 13.9529 0.194916 14.8216C-0.288784 15.5841 0.173643 16.7184 1.07664 16.7184H7.52294C7.53909 16.7184 7.55516 16.718 7.57112 16.7172H9.47475C9.49072 16.718 9.50678 16.7184 9.52294 16.7184H15.9692C16.8722 16.7184 17.3347 15.5841 16.851 14.8216C16.2999 13.9529 15.8354 12.8334 15.8354 11.5014V7.28442C15.8354 7.24606 15.8333 7.2082 15.8291 7.17096Z"/>
  </mask>
  <path d="M15.8291 7.17096L14.3298 7.12312L14.3264 7.23152L14.3385 7.33929L15.8291 7.17096ZM1.21261 7.21817L2.70941 7.31607L2.71452 7.23798L2.71147 7.15978L1.21261 7.21817ZM0.194916 14.8216L-1.07174 14.0181V14.0181L0.194916 14.8216ZM7.57112 16.7172V15.2172H7.53557L7.50007 15.2189L7.57112 16.7172ZM9.47475 16.7172L9.5458 15.2189L9.5103 15.2172H9.47475V16.7172ZM16.851 14.8216L15.5843 15.6251V15.6251L16.851 14.8216ZM14.3325 6.95597C14.3325 7.01194 14.3316 7.06766 14.3298 7.12312L17.3283 7.2188C17.3311 7.13146 17.3325 7.04385 17.3325 6.95597H14.3325ZM8.52 1.5C11.8017 1.5 14.3325 4.01249 14.3325 6.95597H17.3325C17.3325 2.2161 13.3155 -1.5 8.52 -1.5V1.5ZM2.70751 6.95597C2.70751 4.01249 5.23832 1.5 8.52 1.5V-1.5C3.72453 -1.5 -0.292493 2.2161 -0.292493 6.95597H2.70751ZM2.71147 7.15978C2.70884 7.09223 2.70751 7.02428 2.70751 6.95597H-0.292493C-0.292493 7.06324 -0.290404 7.17012 -0.286257 7.27657L2.71147 7.15978ZM2.71045 7.28442C2.71045 7.29485 2.71011 7.30541 2.70941 7.31607L-0.284196 7.12027C-0.287758 7.17474 -0.289554 7.22948 -0.289554 7.28442H2.71045ZM2.71045 11.5014V7.28442H-0.289554V11.5014H2.71045ZM1.46157 15.6251C2.11848 14.5895 2.71045 13.1939 2.71045 11.5014H-0.289554C-0.289554 12.4729 -0.6265 13.3162 -1.07174 14.0181L1.46157 15.6251ZM1.07664 15.2184C1.17964 15.2184 1.28792 15.2549 1.3715 15.3157C1.44604 15.3698 1.47645 15.4241 1.48698 15.4479C1.49917 15.4753 1.51747 15.537 1.46157 15.6251L-1.07174 14.0181C-1.61134 14.8688 -1.60368 15.8788 -1.25545 16.664C-0.898767 17.4683 -0.0861772 18.2184 1.07664 18.2184V15.2184ZM7.52294 15.2184H1.07664V18.2184H7.52294V15.2184ZM7.50007 15.2189C7.50773 15.2186 7.51536 15.2184 7.52294 15.2184V18.2184C7.56283 18.2184 7.60258 18.2174 7.64218 18.2156L7.50007 15.2189ZM9.47475 15.2172H7.57112V18.2172H9.47475V15.2172ZM9.52294 15.2184C9.53052 15.2184 9.53814 15.2186 9.5458 15.2189L9.4037 18.2156C9.44329 18.2174 9.48305 18.2184 9.52294 18.2184V15.2184ZM15.9692 15.2184H9.52294V18.2184H15.9692V15.2184ZM15.5843 15.6251C15.5284 15.537 15.5467 15.4753 15.5589 15.4479C15.5694 15.4241 15.5998 15.3698 15.6744 15.3157C15.758 15.2549 15.8662 15.2184 15.9692 15.2184V18.2184C17.132 18.2184 17.9446 17.4683 18.3013 16.664C18.6495 15.8788 18.6572 14.8688 18.1176 14.0181L15.5843 15.6251ZM14.3354 11.5014C14.3354 13.1939 14.9274 14.5895 15.5843 15.6251L18.1176 14.0181C17.6724 13.3162 17.3354 12.4729 17.3354 11.5014H14.3354ZM14.3354 7.28442V11.5014H17.3354V7.28442H14.3354ZM14.3385 7.33929C14.3364 7.32075 14.3354 7.30241 14.3354 7.28442H17.3354C17.3354 7.18971 17.3301 7.09565 17.3196 7.00263L14.3385 7.33929Z" fill="#49494C" mask="url(#path-1-inside-1_23563_35730)"/>
</svg>
