<svg width="48" height="48" viewBox="0 0 48 48" fill="none" xmlns="http://www.w3.org/2000/svg">
<mask id="path-1-inside-1_19542_13756" fill="white">
<path fill-rule="evenodd" clip-rule="evenodd" d="M23.5191 14C27.5576 14.0002 30.8316 17.1145 30.8316 20.9561C30.8316 21.0237 30.8278 21.091 30.8258 21.1582C30.831 21.1995 30.8355 21.2414 30.8355 21.2842V25.501C30.8355 26.833 31.3001 27.9526 31.8511 28.8213C32.3348 29.5837 31.8721 30.7185 30.9693 30.7188H24.523C24.5117 30.7188 24.5001 30.7172 24.4888 30.7168H22.5572C22.5458 30.7172 22.5345 30.7187 22.523 30.7188H16.0767C15.1737 30.7188 14.7112 29.5838 15.1949 28.8213C15.7459 27.9526 16.2105 26.8328 16.2105 25.501V21.2842C16.2105 21.2648 16.2114 21.2456 16.2125 21.2266C16.2089 21.1368 16.2066 21.0466 16.2066 20.9561C16.2066 17.1144 19.4805 14 23.5191 14Z"/>
</mask>
<path d="M23.5191 14L23.5192 12.5H23.5191V14ZM30.8316 20.9561L32.3316 20.9561V20.9561H30.8316ZM30.8258 21.1582L29.3264 21.1132L29.3229 21.23L29.3375 21.3459L30.8258 21.1582ZM30.8355 21.2842H32.3355V21.2838L30.8355 21.2842ZM31.8511 28.8213L30.5845 29.6248L30.5845 29.6248L31.8511 28.8213ZM30.9693 30.7188V32.2188H30.9697L30.9693 30.7188ZM24.4888 30.7168L24.5388 29.2176L24.5138 29.2168H24.4888V30.7168ZM22.5572 30.7168V29.2168H22.5318L22.5064 29.2177L22.5572 30.7168ZM22.523 30.7188V32.2188H22.5234L22.523 30.7188ZM15.1949 28.8213L16.4615 29.6248L16.4616 29.6247L15.1949 28.8213ZM16.2105 21.2842L14.7105 21.2838V21.2842H16.2105ZM16.2125 21.2266L17.71 21.312L17.7142 21.2392L17.7113 21.1663L16.2125 21.2266ZM16.2066 20.9561H14.7066V20.9561L16.2066 20.9561ZM23.5191 14L23.5191 15.5C26.8007 15.5001 29.3316 18.0127 29.3316 20.9561H30.8316H32.3316C32.3316 16.2162 28.3144 12.5002 23.5192 12.5L23.5191 14ZM30.8316 20.9561L29.3316 20.956C29.3316 20.996 29.3301 20.9898 29.3264 21.1132L30.8258 21.1582L32.3251 21.2032C32.3254 21.1923 32.3316 21.0513 32.3316 20.9561L30.8316 20.9561ZM30.8258 21.1582L29.3375 21.3459C29.3392 21.3593 29.3388 21.3569 29.338 21.348C29.3372 21.3382 29.3355 21.3157 29.3355 21.2845L30.8355 21.2842L32.3355 21.2838C32.3355 21.1419 32.3205 21.0221 32.314 20.9705L30.8258 21.1582ZM30.8355 21.2842H29.3355V25.501H30.8355H32.3355V21.2842H30.8355ZM30.8355 25.501H29.3355C29.3355 27.1935 29.9276 28.5892 30.5845 29.6248L31.8511 28.8213L33.1178 28.0178C32.6725 27.3159 32.3355 26.4724 32.3355 25.501H30.8355ZM31.8511 28.8213L30.5845 29.6248C30.5284 29.5363 30.5469 29.4748 30.5589 29.4478C30.5693 29.4243 30.5996 29.3702 30.674 29.3161C30.7574 29.2555 30.8657 29.2188 30.9689 29.2188L30.9693 30.7188L30.9697 32.2188C32.1327 32.2184 32.9449 31.4678 33.3014 30.6639C33.6495 29.8788 33.6575 28.8687 33.1178 28.0178L31.8511 28.8213ZM30.9693 30.7188V29.2188H24.523V30.7188V32.2188H30.9693V30.7188ZM24.523 30.7188V29.2188C24.5543 29.2188 24.5795 29.2198 24.5951 29.2207C24.6031 29.2211 24.6096 29.2215 24.6138 29.2218C24.618 29.2221 24.6209 29.2223 24.6213 29.2224C24.6216 29.2224 24.6216 29.2224 24.6209 29.2223C24.6205 29.2223 24.6191 29.2222 24.6177 29.2221C24.6149 29.2219 24.6094 29.2214 24.6029 29.221C24.5962 29.2205 24.5872 29.2199 24.5767 29.2193C24.5661 29.2187 24.5533 29.2181 24.5388 29.2176L24.4888 30.7168L24.4389 32.216C24.4162 32.2152 24.3988 32.214 24.3918 32.2135C24.3898 32.2134 24.3883 32.2133 24.3873 32.2132C24.3863 32.2131 24.3856 32.2131 24.3855 32.2131C24.3855 32.2131 24.3855 32.2131 24.3857 32.2131C24.386 32.2131 24.3861 32.2131 24.3866 32.2132C24.3873 32.2132 24.3888 32.2133 24.3905 32.2135C24.3962 32.2139 24.4131 32.2152 24.4338 32.2163C24.4552 32.2175 24.4861 32.2188 24.523 32.2188V30.7188ZM24.4888 30.7168V29.2168H22.5572V30.7168V32.2168H24.4888V30.7168ZM22.5572 30.7168L22.5064 29.2177C22.4784 29.2186 22.4557 29.2201 22.4429 29.221C22.4364 29.2215 22.431 29.2219 22.4282 29.2221C22.4268 29.2222 22.4254 29.2223 22.425 29.2223C22.4243 29.2224 22.4244 29.2224 22.4246 29.2224C22.4251 29.2223 22.4281 29.2221 22.4323 29.2218C22.4366 29.2215 22.4432 29.2211 22.4512 29.2207C22.467 29.2198 22.4919 29.2188 22.5226 29.2188L22.523 30.7188L22.5234 32.2188C22.5599 32.2187 22.5905 32.2175 22.612 32.2163C22.6328 32.2152 22.6498 32.2139 22.6556 32.2135C22.6573 32.2133 22.6588 32.2132 22.6596 32.2132C22.66 32.2131 22.6602 32.2131 22.6605 32.2131C22.6607 32.2131 22.6607 32.2131 22.6607 32.2131C22.6606 32.2131 22.66 32.2131 22.659 32.2132C22.6579 32.2133 22.6564 32.2134 22.6544 32.2135C22.6473 32.214 22.6303 32.2152 22.608 32.2159L22.5572 30.7168ZM22.523 30.7188V29.2188H16.0767V30.7188V32.2188H22.523V30.7188ZM16.0767 30.7188V29.2188C16.1799 29.2188 16.2883 29.2554 16.3719 29.3161C16.4463 29.3703 16.4766 29.4245 16.4871 29.448C16.4991 29.4751 16.5176 29.5365 16.4615 29.6248L15.1949 28.8213L13.9282 28.0178C13.3885 28.8686 13.3964 29.8788 13.7445 30.6639C14.101 31.468 14.9135 32.2188 16.0767 32.2188V30.7188ZM15.1949 28.8213L16.4616 29.6247C17.1183 28.5893 17.7105 27.1934 17.7105 25.501H16.2105H14.7105C14.7105 26.4722 14.3734 27.3159 13.9282 28.0179L15.1949 28.8213ZM16.2105 25.501H17.7105V21.2842H16.2105H14.7105V25.501H16.2105ZM16.2105 21.2842L17.7105 21.2845C17.7105 21.2968 17.7102 21.3057 17.7101 21.3102C17.7099 21.3144 17.7098 21.3158 17.71 21.312L16.2125 21.2266L14.7149 21.1411C14.7132 21.1703 14.7105 21.2224 14.7105 21.2838L16.2105 21.2842ZM16.2125 21.2266L17.7113 21.1663C17.7083 21.0916 17.7066 21.0221 17.7066 20.956L16.2066 20.9561L14.7066 20.9561C14.7066 21.0712 14.7095 21.182 14.7137 21.2868L16.2125 21.2266ZM16.2066 20.9561H17.7066C17.7066 18.0126 20.2375 15.5 23.5191 15.5V14V12.5C18.7236 12.5 14.7066 16.2162 14.7066 20.9561H16.2066Z" fill="#49494C" mask="url(#path-1-inside-1_19542_13756)"/>
<path d="M23.5191 14L23.5192 12.5H23.5191V14ZM30.8316 20.9561L32.3316 20.9561V20.9561H30.8316ZM30.8258 21.1582L29.3264 21.1132L29.3229 21.23L29.3375 21.3459L30.8258 21.1582ZM30.8355 21.2842H32.3355V21.2838L30.8355 21.2842ZM31.8511 28.8213L30.5845 29.6248L30.5845 29.6248L31.8511 28.8213ZM30.9693 30.7188V32.2188H30.9697L30.9693 30.7188ZM24.4888 30.7168L24.5388 29.2176L24.5138 29.2168H24.4888V30.7168ZM22.5572 30.7168V29.2168H22.5318L22.5064 29.2177L22.5572 30.7168ZM22.523 30.7188V32.2188H22.5234L22.523 30.7188ZM15.1949 28.8213L16.4615 29.6248L16.4616 29.6247L15.1949 28.8213ZM16.2105 21.2842L14.7105 21.2838V21.2842H16.2105ZM16.2125 21.2266L17.71 21.312L17.7142 21.2392L17.7113 21.1663L16.2125 21.2266ZM16.2066 20.9561H14.7066V20.9561L16.2066 20.9561ZM23.5191 14L23.5191 15.5C26.8007 15.5001 29.3316 18.0127 29.3316 20.9561H30.8316H32.3316C32.3316 16.2162 28.3144 12.5002 23.5192 12.5L23.5191 14ZM30.8316 20.9561L29.3316 20.956C29.3316 20.996 29.3301 20.9898 29.3264 21.1132L30.8258 21.1582L32.3251 21.2032C32.3254 21.1923 32.3316 21.0513 32.3316 20.9561L30.8316 20.9561ZM30.8258 21.1582L29.3375 21.3459C29.3392 21.3593 29.3388 21.3569 29.338 21.348C29.3372 21.3382 29.3355 21.3157 29.3355 21.2845L30.8355 21.2842L32.3355 21.2838C32.3355 21.1419 32.3205 21.0221 32.314 20.9705L30.8258 21.1582ZM30.8355 21.2842H29.3355V25.501H30.8355H32.3355V21.2842H30.8355ZM30.8355 25.501H29.3355C29.3355 27.1935 29.9276 28.5892 30.5845 29.6248L31.8511 28.8213L33.1178 28.0178C32.6725 27.3159 32.3355 26.4724 32.3355 25.501H30.8355ZM31.8511 28.8213L30.5845 29.6248C30.5284 29.5363 30.5469 29.4748 30.5589 29.4478C30.5693 29.4243 30.5996 29.3702 30.674 29.3161C30.7574 29.2555 30.8657 29.2188 30.9689 29.2188L30.9693 30.7188L30.9697 32.2188C32.1327 32.2184 32.9449 31.4678 33.3014 30.6639C33.6495 29.8788 33.6575 28.8687 33.1178 28.0178L31.8511 28.8213ZM30.9693 30.7188V29.2188H24.523V30.7188V32.2188H30.9693V30.7188ZM24.523 30.7188V29.2188C24.5543 29.2188 24.5795 29.2198 24.5951 29.2207C24.6031 29.2211 24.6096 29.2215 24.6138 29.2218C24.618 29.2221 24.6209 29.2223 24.6213 29.2224C24.6216 29.2224 24.6216 29.2224 24.6209 29.2223C24.6205 29.2223 24.6191 29.2222 24.6177 29.2221C24.6149 29.2219 24.6094 29.2214 24.6029 29.221C24.5962 29.2205 24.5872 29.2199 24.5767 29.2193C24.5661 29.2187 24.5533 29.2181 24.5388 29.2176L24.4888 30.7168L24.4389 32.216C24.4162 32.2152 24.3988 32.214 24.3918 32.2135C24.3898 32.2134 24.3883 32.2133 24.3873 32.2132C24.3863 32.2131 24.3856 32.2131 24.3855 32.2131C24.3855 32.2131 24.3855 32.2131 24.3857 32.2131C24.386 32.2131 24.3861 32.2131 24.3866 32.2132C24.3873 32.2132 24.3888 32.2133 24.3905 32.2135C24.3962 32.2139 24.4131 32.2152 24.4338 32.2163C24.4552 32.2175 24.4861 32.2188 24.523 32.2188V30.7188ZM24.4888 30.7168V29.2168H22.5572V30.7168V32.2168H24.4888V30.7168ZM22.5572 30.7168L22.5064 29.2177C22.4784 29.2186 22.4557 29.2201 22.4429 29.221C22.4364 29.2215 22.431 29.2219 22.4282 29.2221C22.4268 29.2222 22.4254 29.2223 22.425 29.2223C22.4243 29.2224 22.4244 29.2224 22.4246 29.2224C22.4251 29.2223 22.4281 29.2221 22.4323 29.2218C22.4366 29.2215 22.4432 29.2211 22.4512 29.2207C22.467 29.2198 22.4919 29.2188 22.5226 29.2188L22.523 30.7188L22.5234 32.2188C22.5599 32.2187 22.5905 32.2175 22.612 32.2163C22.6328 32.2152 22.6498 32.2139 22.6556 32.2135C22.6573 32.2133 22.6588 32.2132 22.6596 32.2132C22.66 32.2131 22.6602 32.2131 22.6605 32.2131C22.6607 32.2131 22.6607 32.2131 22.6607 32.2131C22.6606 32.2131 22.66 32.2131 22.659 32.2132C22.6579 32.2133 22.6564 32.2134 22.6544 32.2135C22.6473 32.214 22.6303 32.2152 22.608 32.2159L22.5572 30.7168ZM22.523 30.7188V29.2188H16.0767V30.7188V32.2188H22.523V30.7188ZM16.0767 30.7188V29.2188C16.1799 29.2188 16.2883 29.2554 16.3719 29.3161C16.4463 29.3703 16.4766 29.4245 16.4871 29.448C16.4991 29.4751 16.5176 29.5365 16.4615 29.6248L15.1949 28.8213L13.9282 28.0178C13.3885 28.8686 13.3964 29.8788 13.7445 30.6639C14.101 31.468 14.9135 32.2188 16.0767 32.2188V30.7188ZM15.1949 28.8213L16.4616 29.6247C17.1183 28.5893 17.7105 27.1934 17.7105 25.501H16.2105H14.7105C14.7105 26.4722 14.3734 27.3159 13.9282 28.0179L15.1949 28.8213ZM16.2105 25.501H17.7105V21.2842H16.2105H14.7105V25.501H16.2105ZM16.2105 21.2842L17.7105 21.2845C17.7105 21.2968 17.7102 21.3057 17.7101 21.3102C17.7099 21.3144 17.7098 21.3158 17.71 21.312L16.2125 21.2266L14.7149 21.1411C14.7132 21.1703 14.7105 21.2224 14.7105 21.2838L16.2105 21.2842ZM16.2125 21.2266L17.7113 21.1663C17.7083 21.0916 17.7066 21.0221 17.7066 20.956L16.2066 20.9561L14.7066 20.9561C14.7066 21.0712 14.7095 21.182 14.7137 21.2868L16.2125 21.2266ZM16.2066 20.9561H17.7066C17.7066 18.0126 20.2375 15.5 23.5191 15.5V14V12.5C18.7236 12.5 14.7066 16.2162 14.7066 20.9561H16.2066Z" fill="black" fill-opacity="0.2" mask="url(#path-1-inside-1_19542_13756)"/>
<path d="M23.5191 14L23.5192 12.5H23.5191V14ZM30.8316 20.9561L32.3316 20.9561V20.9561H30.8316ZM30.8258 21.1582L29.3264 21.1132L29.3229 21.23L29.3375 21.3459L30.8258 21.1582ZM30.8355 21.2842H32.3355V21.2838L30.8355 21.2842ZM31.8511 28.8213L30.5845 29.6248L30.5845 29.6248L31.8511 28.8213ZM30.9693 30.7188V32.2188H30.9697L30.9693 30.7188ZM24.4888 30.7168L24.5388 29.2176L24.5138 29.2168H24.4888V30.7168ZM22.5572 30.7168V29.2168H22.5318L22.5064 29.2177L22.5572 30.7168ZM22.523 30.7188V32.2188H22.5234L22.523 30.7188ZM15.1949 28.8213L16.4615 29.6248L16.4616 29.6247L15.1949 28.8213ZM16.2105 21.2842L14.7105 21.2838V21.2842H16.2105ZM16.2125 21.2266L17.71 21.312L17.7142 21.2392L17.7113 21.1663L16.2125 21.2266ZM16.2066 20.9561H14.7066V20.9561L16.2066 20.9561ZM23.5191 14L23.5191 15.5C26.8007 15.5001 29.3316 18.0127 29.3316 20.9561H30.8316H32.3316C32.3316 16.2162 28.3144 12.5002 23.5192 12.5L23.5191 14ZM30.8316 20.9561L29.3316 20.956C29.3316 20.996 29.3301 20.9898 29.3264 21.1132L30.8258 21.1582L32.3251 21.2032C32.3254 21.1923 32.3316 21.0513 32.3316 20.9561L30.8316 20.9561ZM30.8258 21.1582L29.3375 21.3459C29.3392 21.3593 29.3388 21.3569 29.338 21.348C29.3372 21.3382 29.3355 21.3157 29.3355 21.2845L30.8355 21.2842L32.3355 21.2838C32.3355 21.1419 32.3205 21.0221 32.314 20.9705L30.8258 21.1582ZM30.8355 21.2842H29.3355V25.501H30.8355H32.3355V21.2842H30.8355ZM30.8355 25.501H29.3355C29.3355 27.1935 29.9276 28.5892 30.5845 29.6248L31.8511 28.8213L33.1178 28.0178C32.6725 27.3159 32.3355 26.4724 32.3355 25.501H30.8355ZM31.8511 28.8213L30.5845 29.6248C30.5284 29.5363 30.5469 29.4748 30.5589 29.4478C30.5693 29.4243 30.5996 29.3702 30.674 29.3161C30.7574 29.2555 30.8657 29.2188 30.9689 29.2188L30.9693 30.7188L30.9697 32.2188C32.1327 32.2184 32.9449 31.4678 33.3014 30.6639C33.6495 29.8788 33.6575 28.8687 33.1178 28.0178L31.8511 28.8213ZM30.9693 30.7188V29.2188H24.523V30.7188V32.2188H30.9693V30.7188ZM24.523 30.7188V29.2188C24.5543 29.2188 24.5795 29.2198 24.5951 29.2207C24.6031 29.2211 24.6096 29.2215 24.6138 29.2218C24.618 29.2221 24.6209 29.2223 24.6213 29.2224C24.6216 29.2224 24.6216 29.2224 24.6209 29.2223C24.6205 29.2223 24.6191 29.2222 24.6177 29.2221C24.6149 29.2219 24.6094 29.2214 24.6029 29.221C24.5962 29.2205 24.5872 29.2199 24.5767 29.2193C24.5661 29.2187 24.5533 29.2181 24.5388 29.2176L24.4888 30.7168L24.4389 32.216C24.4162 32.2152 24.3988 32.214 24.3918 32.2135C24.3898 32.2134 24.3883 32.2133 24.3873 32.2132C24.3863 32.2131 24.3856 32.2131 24.3855 32.2131C24.3855 32.2131 24.3855 32.2131 24.3857 32.2131C24.386 32.2131 24.3861 32.2131 24.3866 32.2132C24.3873 32.2132 24.3888 32.2133 24.3905 32.2135C24.3962 32.2139 24.4131 32.2152 24.4338 32.2163C24.4552 32.2175 24.4861 32.2188 24.523 32.2188V30.7188ZM24.4888 30.7168V29.2168H22.5572V30.7168V32.2168H24.4888V30.7168ZM22.5572 30.7168L22.5064 29.2177C22.4784 29.2186 22.4557 29.2201 22.4429 29.221C22.4364 29.2215 22.431 29.2219 22.4282 29.2221C22.4268 29.2222 22.4254 29.2223 22.425 29.2223C22.4243 29.2224 22.4244 29.2224 22.4246 29.2224C22.4251 29.2223 22.4281 29.2221 22.4323 29.2218C22.4366 29.2215 22.4432 29.2211 22.4512 29.2207C22.467 29.2198 22.4919 29.2188 22.5226 29.2188L22.523 30.7188L22.5234 32.2188C22.5599 32.2187 22.5905 32.2175 22.612 32.2163C22.6328 32.2152 22.6498 32.2139 22.6556 32.2135C22.6573 32.2133 22.6588 32.2132 22.6596 32.2132C22.66 32.2131 22.6602 32.2131 22.6605 32.2131C22.6607 32.2131 22.6607 32.2131 22.6607 32.2131C22.6606 32.2131 22.66 32.2131 22.659 32.2132C22.6579 32.2133 22.6564 32.2134 22.6544 32.2135C22.6473 32.214 22.6303 32.2152 22.608 32.2159L22.5572 30.7168ZM22.523 30.7188V29.2188H16.0767V30.7188V32.2188H22.523V30.7188ZM16.0767 30.7188V29.2188C16.1799 29.2188 16.2883 29.2554 16.3719 29.3161C16.4463 29.3703 16.4766 29.4245 16.4871 29.448C16.4991 29.4751 16.5176 29.5365 16.4615 29.6248L15.1949 28.8213L13.9282 28.0178C13.3885 28.8686 13.3964 29.8788 13.7445 30.6639C14.101 31.468 14.9135 32.2188 16.0767 32.2188V30.7188ZM15.1949 28.8213L16.4616 29.6247C17.1183 28.5893 17.7105 27.1934 17.7105 25.501H16.2105H14.7105C14.7105 26.4722 14.3734 27.3159 13.9282 28.0179L15.1949 28.8213ZM16.2105 25.501H17.7105V21.2842H16.2105H14.7105V25.501H16.2105ZM16.2105 21.2842L17.7105 21.2845C17.7105 21.2968 17.7102 21.3057 17.7101 21.3102C17.7099 21.3144 17.7098 21.3158 17.71 21.312L16.2125 21.2266L14.7149 21.1411C14.7132 21.1703 14.7105 21.2224 14.7105 21.2838L16.2105 21.2842ZM16.2125 21.2266L17.7113 21.1663C17.7083 21.0916 17.7066 21.0221 17.7066 20.956L16.2066 20.9561L14.7066 20.9561C14.7066 21.0712 14.7095 21.182 14.7137 21.2868L16.2125 21.2266ZM16.2066 20.9561H17.7066C17.7066 18.0126 20.2375 15.5 23.5191 15.5V14V12.5C18.7236 12.5 14.7066 16.2162 14.7066 20.9561H16.2066Z" fill="black" fill-opacity="0.2" mask="url(#path-1-inside-1_19542_13756)"/>
<path d="M26.2734 32.4609C25.8715 33.4745 24.7955 34.1999 23.5312 34.1999C22.267 34.1999 21.191 33.4745 20.7891 32.4609" stroke="#49494C" stroke-width="1.5" stroke-linecap="round"/>
<path d="M26.2734 32.4609C25.8715 33.4745 24.7955 34.1999 23.5312 34.1999C22.267 34.1999 21.191 33.4745 20.7891 32.4609" stroke="black" stroke-opacity="0.2" stroke-width="1.5" stroke-linecap="round"/>
<path d="M26.2734 32.4609C25.8715 33.4745 24.7955 34.1999 23.5312 34.1999C22.267 34.1999 21.191 33.4745 20.7891 32.4609" stroke="black" stroke-opacity="0.2" stroke-width="1.5" stroke-linecap="round"/>
</svg>
