<svg width="34" height="30" viewBox="0 0 34 30" fill="none" xmlns="http://www.w3.org/2000/svg">
<ellipse cx="15" cy="15" rx="12" ry="12" fill="#D9D9D9"/>
<path fill-rule="evenodd" clip-rule="evenodd" d="M14.9969 10.1811C13.5162 10.1811 12.3149 11.3405 12.3149 12.772C12.3149 14.2035 13.5162 15.363 14.9969 15.363C16.4776 15.363 17.6789 14.2035 17.6789 12.772C17.6789 11.3405 16.4776 10.1811 14.9969 10.1811ZM11.0909 12.772C11.0909 10.6893 12.8391 9 14.9969 9C17.1547 9 18.9029 10.6893 18.9029 12.772C18.9029 14.8547 17.1547 16.544 14.9969 16.544C12.8391 16.544 11.0909 14.8547 11.0909 12.772ZM14.9969 19.372C12.6249 19.372 10.4602 20.3694 8.85437 22.0144C8.62262 22.2518 8.2353 22.263 7.98926 22.0394C7.74322 21.8157 7.73163 21.442 7.96338 21.2046C9.7772 19.3465 12.2551 18.191 14.9969 18.191C17.7387 18.191 20.2166 19.3465 22.0304 21.2046C22.2621 21.442 22.2506 21.8157 22.0045 22.0394C21.7585 22.263 21.3712 22.2518 21.1394 22.0144C19.5336 20.3694 17.3689 19.372 14.9969 19.372Z" fill="white"/>
</svg>
