<svg width="34" height="30" viewBox="0 0 34 30" fill="none" xmlns="http://www.w3.org/2000/svg">
<ellipse cx="15" cy="15" rx="12" ry="12" fill="#EDF3FD"/>
<path d="M17.3828 14.6025C16.417 15.1409 15.8184 16.1609 15.8184 17.2666V24.1494L22.6455 20.3467C23.6117 19.8084 24.2109 18.7886 24.2109 17.6826V10.7969L17.3828 14.6025Z" fill="#87AFFF"/>
<mask id="mask0_19543_12644" style="mask-type:alpha" maskUnits="userSpaceOnUse" x="6" y="8" width="11" height="18">
<path d="M6 8.04688L16.672 14.1427V25.4201L7.56552 20.3485C6.59911 19.8103 6 18.7909 6 17.6847V8.04688Z" fill="#87AFFF"/>
</mask>
<g mask="url(#mask0_19543_12644)">
<path d="M12.8262 14.6094C13.7925 15.1472 14.3921 16.1665 14.3926 17.2725L14.3975 27.2227L7.50586 23.1914C6.57032 22.6442 5.99541 21.6415 5.99609 20.5576L6.00195 10.8125L12.8262 14.6094ZM7.58594 20.5586C7.58561 21.0775 7.86069 21.5573 8.30859 21.8193L12.8057 24.4502L12.8037 20.5596L7.58691 17.5781L7.58594 20.5586ZM7.58789 15.748L12.8027 18.7285V17.2734C12.8025 16.7439 12.5154 16.2555 12.0527 15.998L7.58984 13.5146L7.58789 15.748Z" fill="#87AFFF"/>
</g>
<path d="M13.5488 5.43457C14.5143 4.85531 15.72 4.85536 16.6855 5.43457L23.4209 9.47461L16.6299 13.3555C15.6925 13.891 14.5418 13.891 13.6045 13.3555L6.8125 9.47461L13.5488 5.43457Z" fill="#407DF7"/>
</svg>
