<svg width="24" height="24" viewBox="0 0 24 24" fill="none" xmlns="http://www.w3.org/2000/svg">
<path fill-rule="evenodd" clip-rule="evenodd" d="M11.9999 13.84C13.028 13.84 13.8614 13.0162 13.8614 12C13.8614 10.9838 13.028 10.16 11.9999 10.16C10.9718 10.16 10.1384 10.9838 10.1384 12C10.1384 13.0162 10.9718 13.84 11.9999 13.84ZM11.9999 15.2C13.7879 15.2 15.2374 13.7673 15.2374 12C15.2374 10.2327 13.7879 8.8 11.9999 8.8C10.2119 8.8 8.76249 10.2327 8.76249 12C8.76249 13.7673 10.2119 15.2 11.9999 15.2Z" fill="#6C6D78"/>
<path fill-rule="evenodd" clip-rule="evenodd" d="M10.7 5.36L10.5243 6.22847C10.2657 7.50626 8.92998 8.26853 7.68116 7.85095L6.83237 7.56714L5.53227 9.79294L6.20528 10.3776C7.19555 11.2378 7.19555 12.7623 6.20528 13.6225L5.53227 14.2071L6.83237 16.4329L7.68117 16.1491C8.92999 15.7315 10.2657 16.4938 10.5243 17.7716L10.7 18.64H13.3002L13.4759 17.7717C13.7344 16.4939 15.0702 15.7316 16.319 16.1492L17.1676 16.4329L18.4677 14.2071L17.7947 13.6225C16.8045 12.7623 16.8045 11.2378 17.7947 10.3776L18.4677 9.79294L17.1676 7.56714L16.319 7.8509C15.0702 8.26848 13.7344 7.50621 13.4759 6.22842L13.3002 5.36H10.7ZM10.2355 4C9.84971 4 9.51754 4.26917 9.44188 4.64311L9.17506 5.96175C9.07931 6.43501 8.58459 6.71733 8.12206 6.56267L6.83331 6.13174C6.46785 6.00954 6.06593 6.1593 5.87303 6.48955L4.10847 9.51052C3.91557 9.84078 3.98531 10.2597 4.27511 10.5114L5.29699 11.3991C5.66376 11.7177 5.66376 12.2824 5.29699 12.601L4.27511 13.4886C3.98531 13.7404 3.91556 14.1593 4.10847 14.4896L5.87303 17.5105C6.06593 17.8408 6.46785 17.9905 6.83331 17.8683L8.12208 17.4374C8.5846 17.2827 9.07932 17.5651 9.17508 18.0383L9.44188 19.3569C9.51754 19.7308 9.84971 20 10.2355 20H13.7646C14.1504 20 14.4826 19.7308 14.5583 19.3569L14.8251 18.0384C14.9208 17.5651 15.4155 17.2828 15.8781 17.4375L17.1667 17.8683C17.5321 17.9905 17.9341 17.8408 18.127 17.5105L19.8915 14.4896C20.0844 14.1593 20.0147 13.7404 19.7249 13.4886L18.703 12.601C18.3362 12.2824 18.3362 11.7177 18.703 11.3991L19.7249 10.5114C20.0147 10.2597 20.0844 9.84078 19.8915 9.51052L18.127 6.48955C17.9341 6.1593 17.5321 6.00954 17.1667 6.13174L15.8781 6.56262C15.4156 6.71728 14.9208 6.43496 14.8251 5.9617L14.5583 4.64311C14.4826 4.26917 14.1504 4 13.7646 4H10.2355Z" fill="#6C6D78"/>
</svg>
